<mxfile host="65bd71144e">
    <diagram id="d1752830928618" name="Page-1">
        <mxGraphModel dx="859" dy="431" grid="1" gridSize="10" guides="1" tooltips="1" connect="1" arrows="1" fold="1" page="1" pageScale="1" pageWidth="850" pageHeight="1100" math="0" shadow="0">
            <root>
                <mxCell id="0"/>
                <mxCell id="1" parent="0"/>
                <mxCell id="table_phi1" style="shape=table;container=1;recursiveResize=0;strokeColor=#000;" parent="1" vertex="1">
                    <mxGeometry x="60" y="80" width="200" height="90" as="geometry"/>
                </mxCell>
                <mxCell id="r0" style="shape=tableRow;startSize=0;fillColor=none;" parent="table_phi1" vertex="1">
                    <mxGeometry width="200" height="30" as="geometry"/>
                </mxCell>
                <mxCell id="c1" value="&lt;b&gt;phi1 : Boolean&lt;/b&gt;" style="html=1;verticalAlign=middle;whiteSpace=wrap;overflow=visible;align=center;fillColor=#ADD8E6;strokeColor=none" parent="r0" vertex="1">
                    <mxGeometry width="200" height="30" as="geometry"/>
                </mxCell>
                <mxCell id="r2" style="shape=tableRow;startSize=0;fillColor=none;" parent="table_phi1" vertex="1">
                    <mxGeometry y="30" width="200" height="60" as="geometry"/>
                </mxCell>
                <mxCell id="c3" value="value = if (2.0 &lt; time) and (time &lt; 3.5) then undecided else false" style="html=1;verticalAlign=middle;whiteSpace=wrap;overflow=visible;align=left" parent="r2" vertex="1">
                    <mxGeometry width="200" height="60" as="geometry"/>
                </mxCell>
                <mxCell id="table_b1" style="shape=table;container=1;recursiveResize=0;strokeColor=#000;" parent="1" vertex="1">
                    <mxGeometry x="310" y="80" width="200" height="90" as="geometry"/>
                </mxCell>
                <mxCell id="r4" style="shape=tableRow;startSize=0;fillColor=none;" parent="table_b1" vertex="1">
                    <mxGeometry width="200" height="30" as="geometry"/>
                </mxCell>
                <mxCell id="c5" value="&lt;b&gt;b1 : Boolean&lt;/b&gt;" style="html=1;verticalAlign=middle;whiteSpace=wrap;overflow=visible;align=center;fillColor=#ADD8E6;strokeColor=none" parent="r4" vertex="1">
                    <mxGeometry width="200" height="30" as="geometry"/>
                </mxCell>
                <mxCell id="r6" style="shape=tableRow;startSize=0;fillColor=none;" parent="table_b1" vertex="1">
                    <mxGeometry y="30" width="200" height="60" as="geometry"/>
                </mxCell>
                <mxCell id="c7" value="value = if (2.5 &lt; time) and (time &lt; 5) then true else false" style="html=1;verticalAlign=middle;whiteSpace=wrap;overflow=visible;align=left" parent="r6" vertex="1">
                    <mxGeometry width="200" height="60" as="geometry"/>
                </mxCell>
                <mxCell id="table_P1" style="shape=table;container=1;recursiveResize=0;strokeColor=#000;" parent="1" vertex="1">
                    <mxGeometry x="560" y="40" width="200" height="30" as="geometry"/>
                </mxCell>
                <mxCell id="r8" style="shape=tableRow;startSize=0;fillColor=none;" parent="table_P1" vertex="1">
                    <mxGeometry width="200" height="30" as="geometry"/>
                </mxCell>
                <mxCell id="c9" value="&lt;b&gt;P1 : Periods&lt;/b&gt;" style="html=1;verticalAlign=middle;whiteSpace=wrap;overflow=visible;align=center;fillColor=#ADD8E6;strokeColor=none" parent="r8" vertex="1">
                    <mxGeometry width="200" height="30" as="geometry"/>
                </mxCell>
                <mxCell id="table_b_check_over" style="shape=table;container=1;recursiveResize=0;strokeColor=#000;" parent="1" vertex="1">
                    <mxGeometry x="310" y="250" width="200" height="70" as="geometry"/>
                </mxCell>
                <mxCell id="r10" style="shape=tableRow;startSize=0;fillColor=none;" parent="table_b_check_over" vertex="1">
                    <mxGeometry width="200" height="30" as="geometry"/>
                </mxCell>
                <mxCell id="c11" value="&lt;b&gt;b_check_over : Boolean&lt;/b&gt;" style="html=1;verticalAlign=middle;whiteSpace=wrap;overflow=visible;align=center;fillColor=#ADD8E6;strokeColor=none" parent="r10" vertex="1">
                    <mxGeometry width="200" height="30" as="geometry"/>
                </mxCell>
                <mxCell id="r12" style="shape=tableRow;startSize=0;fillColor=none;" parent="table_b_check_over" vertex="1">
                    <mxGeometry y="30" width="200" height="40" as="geometry"/>
                </mxCell>
                <mxCell id="c13" value="value = &#39;check&#39; phi1 &#39;over&#39; P1" style="html=1;verticalAlign=middle;whiteSpace=wrap;overflow=visible;align=left" parent="r12" vertex="1">
                    <mxGeometry width="200" height="40" as="geometry"/>
                </mxCell>
                <mxCell id="edge0" style="edgeStyle=orthogonalEdgeStyle;rounded=0;strokeColor=#000;endArrow=classic;endFill=0;" parent="1" source="table_P1" target="table_b1" edge="1">
                    <mxGeometry relative="1" as="geometry"/>
                </mxCell>
                <mxCell id="edge1" style="edgeStyle=orthogonalEdgeStyle;rounded=0;strokeColor=#000;endArrow=classic;endFill=0;" parent="1" source="table_P1" target="table_b1" edge="1">
                    <mxGeometry relative="1" as="geometry"/>
                </mxCell>
                <mxCell id="edge2" style="edgeStyle=orthogonalEdgeStyle;rounded=0;strokeColor=#000;endArrow=classic;endFill=0;" parent="1" source="table_b_check_over" target="table_phi1" edge="1">
                    <mxGeometry relative="1" as="geometry"/>
                </mxCell>
                <mxCell id="edge3" style="edgeStyle=orthogonalEdgeStyle;rounded=0;strokeColor=#000;endArrow=classic;endFill=0;" parent="1" source="table_b_check_over" target="table_P1" edge="1">
                    <mxGeometry relative="1" as="geometry"/>
                </mxCell>
            </root>
        </mxGraphModel>
    </diagram>
</mxfile>